<?xml version="1.0" encoding="UTF-8"?>
<!DOCTYPE svg PUBLIC "-//W3C//DTD SVG 1.1//EN" "http://www.w3.org/Graphics/SVG/1.1/DTD/svg11.dtd">
<svg xmlns="http://www.w3.org/2000/svg" version="1.1" width="497px" height="502px" style="shape-rendering:geometricPrecision; text-rendering:geometricPrecision; image-rendering:optimizeQuality; fill-rule:evenodd; clip-rule:evenodd" xmlns:xlink="http://www.w3.org/1999/xlink">
<g><path style="opacity:1" fill="#818383" d="M 381.5,140.5 C 368.14,132.982 353.806,127.482 338.5,124C 309.255,118.584 279.755,116.084 250,116.5C 224.363,115.748 198.863,117.248 173.5,121C 155.185,124.382 137.851,130.216 121.5,138.5C 118.204,140.821 114.871,143.154 111.5,145.5C 108.21,147.124 105.543,149.457 103.5,152.5C 114.743,105.198 138.077,64.6975 173.5,31C 215.786,-4.84523 261.119,-9.17857 309.5,18C 334.477,34.8122 354.31,56.3122 369,82.5C 381.385,103.771 390.885,126.271 397.5,150C 397.333,150.833 397.167,151.667 397,152.5C 392.216,147.875 387.049,143.875 381.5,140.5 Z M 120.5,145.5 C 118.973,145.427 117.973,146.094 117.5,147.5C 115.516,148.156 113.516,148.822 111.5,149.5C 110.833,149.167 110.167,148.833 109.5,148.5C 110.193,147.482 110.859,146.482 111.5,145.5C 114.871,143.154 118.204,140.821 121.5,138.5C 122.822,138.67 123.989,138.337 125,137.5C 125.167,138 125.333,138.5 125.5,139C 124.015,141.317 122.348,143.484 120.5,145.5 Z"/></g>
<g><path style="opacity:0.913" fill="#f2f2f3" d="M 381.5,140.5 C 380.5,140.5 379.5,140.5 378.5,140.5C 378.5,141.833 378.5,143.167 378.5,144.5C 370.882,140.853 363.215,137.519 355.5,134.5C 352.495,132.723 349.162,131.723 345.5,131.5C 336.524,129.672 327.524,128.005 318.5,126.5C 306.07,124.256 293.403,122.923 280.5,122.5C 269.839,121.833 259.005,121.5 248,121.5C 232.967,121.288 218.133,121.955 203.5,123.5C 199.131,123.467 194.798,123.8 190.5,124.5C 189.151,123.356 188.817,123.356 189.5,124.5C 189.5,124.833 189.5,125.167 189.5,125.5C 164.976,127.376 141.976,134.043 120.5,145.5C 122.348,143.484 124.015,141.317 125.5,139C 125.333,138.5 125.167,138 125,137.5C 123.989,138.337 122.822,138.67 121.5,138.5C 137.851,130.216 155.185,124.382 173.5,121C 198.863,117.248 224.363,115.748 250,116.5C 279.755,116.084 309.255,118.584 338.5,124C 353.806,127.482 368.14,132.982 381.5,140.5 Z"/></g>
<g><path style="opacity:0.99" fill="#8e8c8a" d="M 280.5,122.5 C 254.827,122.469 229.161,122.802 203.5,123.5C 218.133,121.955 232.967,121.288 248,121.5C 259.005,121.5 269.839,121.833 280.5,122.5 Z"/></g>
<g><path style="opacity:1" fill="#4b453d" d="M 280.5,122.5 C 293.403,122.923 306.07,124.256 318.5,126.5C 316.712,126.215 315.045,126.548 313.5,127.5C 321.665,138.491 327.832,150.491 332,163.5C 332.765,165.066 332.598,166.399 331.5,167.5C 327.614,158.451 320.947,152.284 311.5,149C 293.035,142.2 275.035,143.2 257.5,152C 246.847,153.34 236.847,151.34 227.5,146C 207.421,141.107 189.754,145.274 174.5,158.5C 177.681,146.14 183.681,135.307 192.5,126C 191.552,125.517 190.552,125.351 189.5,125.5C 189.5,125.167 189.5,124.833 189.5,124.5C 189.833,124.5 190.167,124.5 190.5,124.5C 194.798,123.8 199.131,123.467 203.5,123.5C 229.161,122.802 254.827,122.469 280.5,122.5 Z"/></g>
<g><path style="opacity:1" fill="#0c0d0d" d="M 189.5,125.5 C 190.552,125.351 191.552,125.517 192.5,126C 183.681,135.307 177.681,146.14 174.5,158.5C 166.702,166.224 164.702,175.224 168.5,185.5C 143.387,188.684 121.887,199.017 104,216.5C 103.764,214.881 102.931,213.881 101.5,213.5C 95.8602,200.991 94.3602,187.991 97,174.5C 98.0612,170.05 99.8946,166.05 102.5,162.5C 104.223,160.747 105.723,158.747 107,156.5C 110.665,153.601 114.165,150.601 117.5,147.5C 119.027,147.573 120.027,146.906 120.5,145.5C 141.976,134.043 164.976,127.376 189.5,125.5 Z"/></g>
<g><path style="opacity:1" fill="#0c0d0d" d="M 318.5,126.5 C 327.524,128.005 336.524,129.672 345.5,131.5C 348.505,133.277 351.838,134.277 355.5,134.5C 363.215,137.519 370.882,140.853 378.5,144.5C 378.973,145.906 379.973,146.573 381.5,146.5C 385.572,148.208 388.905,150.874 391.5,154.5C 392.08,156.749 393.413,158.415 395.5,159.5C 398.389,162.256 400.556,165.589 402,169.5C 407.18,186.1 405.68,202.1 397.5,217.5C 381.061,200.614 361.061,190.614 337.5,187.5C 337.665,191.182 337.499,194.848 337,198.5C 336.824,194.312 336.324,190.312 335.5,186.5C 334.609,185.89 333.609,185.557 332.5,185.5C 333.858,179.427 333.524,173.427 331.5,167.5C 332.598,166.399 332.765,165.066 332,163.5C 327.832,150.491 321.665,138.491 313.5,127.5C 315.045,126.548 316.712,126.215 318.5,126.5 Z"/></g>
<g><path style="opacity:1" fill="#8d8d8e" d="M 345.5,131.5 C 349.162,131.723 352.495,132.723 355.5,134.5C 351.838,134.277 348.505,133.277 345.5,131.5 Z"/></g>
<g><path style="opacity:1" fill="#030303" d="M 331.5,167.5 C 333.524,173.427 333.858,179.427 332.5,185.5C 324.27,199.463 311.936,207.13 295.5,208.5C 288.151,208.451 280.817,208.118 273.5,207.5C 268.547,206.35 263.88,204.516 259.5,202C 253.157,200.065 246.823,200.065 240.5,202C 219.211,212.824 198.544,211.824 178.5,199C 174.522,195.864 171.522,192.031 169.5,187.5C 169.167,186.833 168.833,186.167 168.5,185.5C 164.702,175.224 166.702,166.224 174.5,158.5C 189.754,145.274 207.421,141.107 227.5,146C 236.847,151.34 246.847,153.34 257.5,152C 275.035,143.2 293.035,142.2 311.5,149C 320.947,152.284 327.614,158.451 331.5,167.5 Z"/></g>
<g><path style="opacity:0.18" fill="#a2a3a4" d="M 378.5,144.5 C 380.027,144.427 381.027,145.094 381.5,146.5C 379.973,146.573 378.973,145.906 378.5,144.5 Z"/></g>
<g><path style="opacity:0.616" fill="#898a8c" d="M 120.5,145.5 C 120.027,146.906 119.027,147.573 117.5,147.5C 117.973,146.094 118.973,145.427 120.5,145.5 Z"/></g>
<g><path style="opacity:0.656" fill="#e9e9e9" d="M 111.5,145.5 C 110.859,146.482 110.193,147.482 109.5,148.5C 110.167,148.833 110.833,149.167 111.5,149.5C 113.516,148.822 115.516,148.156 117.5,147.5C 114.165,150.601 110.665,153.601 107,156.5C 105.723,158.747 104.223,160.747 102.5,162.5C 104.167,159.214 104.5,155.88 103.5,152.5C 105.543,149.457 108.21,147.124 111.5,145.5 Z"/></g>
<g><path style="opacity:0.745" fill="#767676" d="M 391.5,154.5 C 393.587,155.585 394.92,157.251 395.5,159.5C 393.413,158.415 392.08,156.749 391.5,154.5 Z"/></g>
<g><path style="opacity:1" fill="#2b2d2c" d="M 168.5,185.5 C 168.833,186.167 169.167,186.833 169.5,187.5C 166.794,226.42 181.128,257.42 212.5,280.5C 193.167,280.5 173.833,280.5 154.5,280.5C 142.866,269.699 131.7,258.366 121,246.5C 113.046,236.375 106.546,225.375 101.5,213.5C 102.931,213.881 103.764,214.881 104,216.5C 121.887,199.017 143.387,188.684 168.5,185.5 Z"/></g>
<g><path style="opacity:1" fill="#c5b198" d="M 332.5,185.5 C 333.609,185.557 334.609,185.89 335.5,186.5C 337.422,220.728 326.089,249.561 301.5,273C 297.655,275.363 293.989,277.863 290.5,280.5C 264.5,280.5 238.5,280.5 212.5,280.5C 181.128,257.42 166.794,226.42 169.5,187.5C 171.522,192.031 174.522,195.864 178.5,199C 198.544,211.824 219.211,212.824 240.5,202C 246.823,200.065 253.157,200.065 259.5,202C 263.88,204.516 268.547,206.35 273.5,207.5C 277.921,208.912 282.588,209.579 287.5,209.5C 290.355,209.497 293.022,209.164 295.5,208.5C 311.936,207.13 324.27,199.463 332.5,185.5 Z"/></g>
<g><path style="opacity:1" fill="#2b2d2d" d="M 335.5,186.5 C 336.324,190.312 336.824,194.312 337,198.5C 337.499,194.848 337.665,191.182 337.5,187.5C 361.061,190.614 381.061,200.614 397.5,217.5C 384.577,242.094 367.244,263.094 345.5,280.5C 327.167,280.5 308.833,280.5 290.5,280.5C 293.989,277.863 297.655,275.363 301.5,273C 326.089,249.561 337.422,220.728 335.5,186.5 Z"/></g>
<g><path style="opacity:1" fill="#403c38" d="M 273.5,207.5 C 280.817,208.118 288.151,208.451 295.5,208.5C 293.022,209.164 290.355,209.497 287.5,209.5C 282.588,209.579 277.921,208.912 273.5,207.5 Z"/></g>
<g><path style="opacity:0.999" fill="#838585" d="M 145.5,280.5 C 127.167,280.5 108.833,280.5 90.5,280.5C 97.921,268.654 105.588,256.987 113.5,245.5C 123.479,257.812 134.146,269.479 145.5,280.5 Z"/></g>
<g><path style="opacity:0.999" fill="#838585" d="M 409.5,280.5 C 391.167,280.5 372.833,280.5 354.5,280.5C 359.438,276.064 364.271,271.397 369,266.5C 374.763,259.314 380.763,252.314 387,245.5C 395.02,256.884 402.52,268.55 409.5,280.5 Z"/></g>
<g><path style="opacity:1" fill="#2c3690" d="M 90.5,280.5 C 108.833,280.5 127.167,280.5 145.5,280.5C 148.5,280.5 151.5,280.5 154.5,280.5C 173.833,280.5 193.167,280.5 212.5,280.5C 238.5,280.5 264.5,280.5 290.5,280.5C 308.833,280.5 327.167,280.5 345.5,280.5C 348.5,280.5 351.5,280.5 354.5,280.5C 372.833,280.5 391.167,280.5 409.5,280.5C 428.837,280.339 439.503,289.839 441.5,309C 441.052,314.077 440.052,318.91 438.5,323.5C 429.602,367.812 420.102,412.145 410,456.5C 405.542,466.473 398.042,472.807 387.5,475.5C 385.897,475.312 384.563,475.812 383.5,477C 388.155,477.499 392.821,477.666 397.5,477.5C 409.152,484.122 409.485,491.455 398.5,499.5C 297.5,499.5 196.5,499.5 95.5,499.5C 87.5928,495.76 85.4261,489.76 89,481.5C 90.8053,479.518 92.972,478.184 95.5,477.5C 100.511,477.666 105.511,477.499 110.5,477C 108.846,476.392 107.179,475.892 105.5,475.5C 95.861,473.035 88.6943,467.368 84,458.5C 81.4105,449.547 79.0772,440.547 77,431.5C 70.8108,397.911 63.9775,364.577 56.5,331.5C 53.0768,321.792 51.9101,311.792 53,301.5C 55.6782,292.822 61.1782,286.655 69.5,283C 76.3532,281.012 83.3532,280.179 90.5,280.5 Z M 237.5,361.5 C 250.231,359.139 261.398,362.139 271,370.5C 278.866,382.466 277.033,392.966 265.5,402C 253.647,407.604 241.647,407.937 229.5,403C 218.847,396.532 215.347,387.365 219,375.5C 223.526,368.505 229.693,363.839 237.5,361.5 Z"/></g>
<g><path style="opacity:0.998" fill="#808282" d="M 438.5,323.5 C 438.34,325.199 438.506,326.866 439,328.5C 459.255,364.343 476.255,401.676 490,440.5C 495.013,464.638 486.846,482.805 465.5,495C 460.367,497.156 455.033,498.489 449.5,499C 432.503,499.5 415.503,499.667 398.5,499.5C 409.485,491.455 409.152,484.122 397.5,477.5C 394.167,476.833 390.833,476.167 387.5,475.5C 398.042,472.807 405.542,466.473 410,456.5C 420.102,412.145 429.602,367.812 438.5,323.5 Z"/></g>
<g><path style="opacity:0.999" fill="#808283" d="M 56.5,331.5 C 63.9775,364.577 70.8108,397.911 77,431.5C 79.0772,440.547 81.4105,449.547 84,458.5C 88.6943,467.368 95.861,473.035 105.5,475.5C 102.167,476.167 98.8333,476.833 95.5,477.5C 92.972,478.184 90.8053,479.518 89,481.5C 85.4261,489.76 87.5928,495.76 95.5,499.5C 80.8295,499.667 66.1629,499.5 51.5,499C 25.1204,494.953 10.7871,479.62 8.5,453C 8.81734,448.08 9.65068,443.246 11,438.5C 23.8056,404.219 38.8056,370.885 56,338.5C 56.4966,336.19 56.6633,333.857 56.5,331.5 Z"/></g>
<g><path style="opacity:0.998" fill="#b0b3b3" d="M 235.5,343.5 C 256.08,340.58 273.413,346.58 287.5,361.5C 296.668,381.162 292.002,396.662 273.5,408C 252.671,418.85 232.671,417.517 213.5,404C 194.818,384.125 196.484,366.125 218.5,350C 224.16,347.507 229.826,345.341 235.5,343.5 Z M 237.5,361.5 C 229.693,363.839 223.526,368.505 219,375.5C 215.347,387.365 218.847,396.532 229.5,403C 241.647,407.937 253.647,407.604 265.5,402C 277.033,392.966 278.866,382.466 271,370.5C 261.398,362.139 250.231,359.139 237.5,361.5 Z"/></g>
<g><path style="opacity:1" fill="#5c608a" d="M 105.5,475.5 C 107.179,475.892 108.846,476.392 110.5,477C 105.511,477.499 100.511,477.666 95.5,477.5C 98.8333,476.833 102.167,476.167 105.5,475.5 Z"/></g>
<g><path style="opacity:1" fill="#5a5f89" d="M 387.5,475.5 C 390.833,476.167 394.167,476.833 397.5,477.5C 392.821,477.666 388.155,477.499 383.5,477C 384.563,475.812 385.897,475.312 387.5,475.5 Z"/></g>
</svg>
